<mxfile host="Electron" agent="Mozilla/5.0 (Windows NT 10.0; Win64; x64) AppleWebKit/537.36 (KHTML, like Gecko) draw.io/27.0.9 Chrome/134.0.6998.205 Electron/35.4.0 Safari/537.36" version="27.0.9">
  <diagram name="Page-1" id="9Kf1y3A2pL2WANAioQQF">
    <mxGraphModel dx="980" dy="1523" grid="1" gridSize="10" guides="1" tooltips="1" connect="1" arrows="1" fold="1" page="1" pageScale="1" pageWidth="850" pageHeight="1100" math="0" shadow="0">
      <root>
        <mxCell id="0" />
        <mxCell id="1" parent="0" />
        <mxCell id="YUWVcZzt3nmgiwPd1lfK-36" value="" style="rounded=1;whiteSpace=wrap;html=1;arcSize=7;fillColor=none;dashed=1;" parent="1" vertex="1">
          <mxGeometry x="565" y="240" width="240" height="550" as="geometry" />
        </mxCell>
        <mxCell id="YUWVcZzt3nmgiwPd1lfK-34" value="" style="rounded=1;whiteSpace=wrap;html=1;arcSize=4;fillColor=none;dashed=1;" parent="1" vertex="1">
          <mxGeometry x="45" y="240" width="430" height="470" as="geometry" />
        </mxCell>
        <mxCell id="YUWVcZzt3nmgiwPd1lfK-1" value="crm_cust_info" style="swimlane;fontStyle=0;childLayout=stackLayout;horizontal=1;startSize=30;horizontalStack=0;resizeParent=1;resizeParentMax=0;resizeLast=0;collapsible=1;marginBottom=0;whiteSpace=wrap;html=1;fillColor=#dae8fc;strokeColor=#6c8ebf;rounded=1;fontSize=17;" parent="1" vertex="1">
          <mxGeometry x="285" y="530" width="160" height="140" as="geometry" />
        </mxCell>
        <mxCell id="YUWVcZzt3nmgiwPd1lfK-2" value="cst_id" style="text;strokeColor=none;fillColor=none;align=left;verticalAlign=middle;spacingLeft=4;spacingRight=4;overflow=hidden;points=[[0,0.5],[1,0.5]];portConstraint=eastwest;rotatable=0;whiteSpace=wrap;html=1;fontSize=17;" parent="YUWVcZzt3nmgiwPd1lfK-1" vertex="1">
          <mxGeometry y="30" width="160" height="40" as="geometry" />
        </mxCell>
        <mxCell id="YUWVcZzt3nmgiwPd1lfK-23" value="cst_key" style="text;strokeColor=none;fillColor=none;align=left;verticalAlign=middle;spacingLeft=4;spacingRight=4;overflow=hidden;points=[[0,0.5],[1,0.5]];portConstraint=eastwest;rotatable=0;whiteSpace=wrap;html=1;fontSize=17;" parent="YUWVcZzt3nmgiwPd1lfK-1" vertex="1">
          <mxGeometry y="70" width="160" height="40" as="geometry" />
        </mxCell>
        <mxCell id="Ue31bYoo42OICyJNplh4-17" value="&lt;b&gt;&lt;font style=&quot;font-size: 18px;&quot;&gt;CUSTOMER&lt;/font&gt;&lt;/b&gt;" style="text;html=1;strokeColor=#82b366;fillColor=#d5e8d4;align=center;verticalAlign=middle;whiteSpace=wrap;overflow=hidden;" parent="YUWVcZzt3nmgiwPd1lfK-1" vertex="1">
          <mxGeometry y="110" width="160" height="30" as="geometry" />
        </mxCell>
        <mxCell id="YUWVcZzt3nmgiwPd1lfK-6" value="Customer Information" style="text;html=1;align=center;verticalAlign=middle;whiteSpace=wrap;rounded=0;" parent="1" vertex="1">
          <mxGeometry x="300" y="490" width="130" height="30" as="geometry" />
        </mxCell>
        <mxCell id="YUWVcZzt3nmgiwPd1lfK-7" value="crm_prd_info" style="swimlane;fontStyle=0;childLayout=stackLayout;horizontal=1;startSize=30;horizontalStack=0;resizeParent=1;resizeParentMax=0;resizeLast=0;collapsible=1;marginBottom=0;whiteSpace=wrap;html=1;fillColor=#dae8fc;strokeColor=#6c8ebf;rounded=1;fontSize=17;" parent="1" vertex="1">
          <mxGeometry x="285" y="330" width="160" height="100" as="geometry" />
        </mxCell>
        <mxCell id="YUWVcZzt3nmgiwPd1lfK-8" value="prd_key" style="text;strokeColor=none;fillColor=none;align=left;verticalAlign=middle;spacingLeft=4;spacingRight=4;overflow=hidden;points=[[0,0.5],[1,0.5]];portConstraint=eastwest;rotatable=0;whiteSpace=wrap;html=1;fontSize=17;" parent="YUWVcZzt3nmgiwPd1lfK-7" vertex="1">
          <mxGeometry y="30" width="160" height="40" as="geometry" />
        </mxCell>
        <mxCell id="Ue31bYoo42OICyJNplh4-5" value="&lt;b&gt;&lt;font style=&quot;font-size: 18px;&quot;&gt;PRODUCT&lt;/font&gt;&lt;/b&gt;" style="text;html=1;strokeColor=#b85450;fillColor=#f8cecc;align=center;verticalAlign=middle;whiteSpace=wrap;overflow=hidden;" parent="YUWVcZzt3nmgiwPd1lfK-7" vertex="1">
          <mxGeometry y="70" width="160" height="30" as="geometry" />
        </mxCell>
        <mxCell id="YUWVcZzt3nmgiwPd1lfK-9" value="Current &amp;amp; History Product Information" style="text;html=1;align=center;verticalAlign=middle;whiteSpace=wrap;rounded=0;" parent="1" vertex="1">
          <mxGeometry x="300" y="290" width="130" height="30" as="geometry" />
        </mxCell>
        <mxCell id="YUWVcZzt3nmgiwPd1lfK-11" value="crm_sales_details" style="swimlane;fontStyle=0;childLayout=stackLayout;horizontal=1;startSize=30;horizontalStack=0;resizeParent=1;resizeParentMax=0;resizeLast=0;collapsible=1;marginBottom=0;whiteSpace=wrap;html=1;fillColor=#dae8fc;strokeColor=#6c8ebf;rounded=1;fontSize=17;" parent="1" vertex="1">
          <mxGeometry x="85" y="410" width="160" height="140" as="geometry" />
        </mxCell>
        <mxCell id="YUWVcZzt3nmgiwPd1lfK-12" value="prd_key" style="text;strokeColor=none;fillColor=none;align=left;verticalAlign=middle;spacingLeft=4;spacingRight=4;overflow=hidden;points=[[0,0.5],[1,0.5]];portConstraint=eastwest;rotatable=0;whiteSpace=wrap;html=1;fontSize=17;" parent="YUWVcZzt3nmgiwPd1lfK-11" vertex="1">
          <mxGeometry y="30" width="160" height="40" as="geometry" />
        </mxCell>
        <mxCell id="YUWVcZzt3nmgiwPd1lfK-16" value="cust_id" style="text;strokeColor=none;fillColor=none;align=left;verticalAlign=middle;spacingLeft=4;spacingRight=4;overflow=hidden;points=[[0,0.5],[1,0.5]];portConstraint=eastwest;rotatable=0;whiteSpace=wrap;html=1;fontSize=17;" parent="YUWVcZzt3nmgiwPd1lfK-11" vertex="1">
          <mxGeometry y="70" width="160" height="40" as="geometry" />
        </mxCell>
        <mxCell id="Ue31bYoo42OICyJNplh4-15" value="&lt;b&gt;&lt;font style=&quot;font-size: 18px;&quot;&gt;SALES&lt;/font&gt;&lt;/b&gt;" style="text;html=1;strokeColor=#9673a6;fillColor=#e1d5e7;align=center;verticalAlign=middle;whiteSpace=wrap;overflow=hidden;" parent="YUWVcZzt3nmgiwPd1lfK-11" vertex="1">
          <mxGeometry y="110" width="160" height="30" as="geometry" />
        </mxCell>
        <mxCell id="YUWVcZzt3nmgiwPd1lfK-13" value="Transactional Records about Sales &amp;amp; Orders" style="text;html=1;align=center;verticalAlign=middle;whiteSpace=wrap;rounded=0;" parent="1" vertex="1">
          <mxGeometry x="100" y="370" width="130" height="30" as="geometry" />
        </mxCell>
        <mxCell id="YUWVcZzt3nmgiwPd1lfK-18" style="edgeStyle=orthogonalEdgeStyle;rounded=0;orthogonalLoop=1;jettySize=auto;html=1;entryX=0;entryY=0.5;entryDx=0;entryDy=0;" parent="1" source="YUWVcZzt3nmgiwPd1lfK-12" target="YUWVcZzt3nmgiwPd1lfK-8" edge="1">
          <mxGeometry relative="1" as="geometry" />
        </mxCell>
        <mxCell id="YUWVcZzt3nmgiwPd1lfK-19" style="edgeStyle=orthogonalEdgeStyle;rounded=0;orthogonalLoop=1;jettySize=auto;html=1;entryX=0;entryY=0.5;entryDx=0;entryDy=0;" parent="1" source="YUWVcZzt3nmgiwPd1lfK-16" target="YUWVcZzt3nmgiwPd1lfK-2" edge="1">
          <mxGeometry relative="1" as="geometry" />
        </mxCell>
        <mxCell id="YUWVcZzt3nmgiwPd1lfK-20" value="erp_cust_az12" style="swimlane;fontStyle=0;childLayout=stackLayout;horizontal=1;startSize=30;horizontalStack=0;resizeParent=1;resizeParentMax=0;resizeLast=0;collapsible=1;marginBottom=0;whiteSpace=wrap;html=1;fillColor=#fff2cc;strokeColor=#d6b656;rounded=1;fontSize=17;" parent="1" vertex="1">
          <mxGeometry x="605" y="490" width="160" height="100" as="geometry" />
        </mxCell>
        <mxCell id="YUWVcZzt3nmgiwPd1lfK-21" value="cid" style="text;strokeColor=none;fillColor=none;align=left;verticalAlign=middle;spacingLeft=4;spacingRight=4;overflow=hidden;points=[[0,0.5],[1,0.5]];portConstraint=eastwest;rotatable=0;whiteSpace=wrap;html=1;fontSize=17;" parent="YUWVcZzt3nmgiwPd1lfK-20" vertex="1">
          <mxGeometry y="30" width="160" height="40" as="geometry" />
        </mxCell>
        <mxCell id="Ue31bYoo42OICyJNplh4-16" value="&lt;b&gt;&lt;font style=&quot;font-size: 18px;&quot;&gt;CUSTOMER&lt;/font&gt;&lt;/b&gt;" style="text;html=1;strokeColor=#82b366;fillColor=#d5e8d4;align=center;verticalAlign=middle;whiteSpace=wrap;overflow=hidden;" parent="YUWVcZzt3nmgiwPd1lfK-20" vertex="1">
          <mxGeometry y="70" width="160" height="30" as="geometry" />
        </mxCell>
        <mxCell id="YUWVcZzt3nmgiwPd1lfK-22" value="Extra Customer Information (Birthdate)" style="text;html=1;align=center;verticalAlign=middle;whiteSpace=wrap;rounded=0;" parent="1" vertex="1">
          <mxGeometry x="620" y="450" width="130" height="30" as="geometry" />
        </mxCell>
        <mxCell id="YUWVcZzt3nmgiwPd1lfK-24" value="erp_loc_a101" style="swimlane;fontStyle=0;childLayout=stackLayout;horizontal=1;startSize=30;horizontalStack=0;resizeParent=1;resizeParentMax=0;resizeLast=0;collapsible=1;marginBottom=0;whiteSpace=wrap;html=1;fillColor=#fff2cc;strokeColor=#d6b656;rounded=1;fontSize=17;" parent="1" vertex="1">
          <mxGeometry x="605" y="650" width="160" height="100" as="geometry" />
        </mxCell>
        <mxCell id="YUWVcZzt3nmgiwPd1lfK-25" value="cid" style="text;strokeColor=none;fillColor=none;align=left;verticalAlign=middle;spacingLeft=4;spacingRight=4;overflow=hidden;points=[[0,0.5],[1,0.5]];portConstraint=eastwest;rotatable=0;whiteSpace=wrap;html=1;fontSize=17;" parent="YUWVcZzt3nmgiwPd1lfK-24" vertex="1">
          <mxGeometry y="30" width="160" height="40" as="geometry" />
        </mxCell>
        <mxCell id="Ue31bYoo42OICyJNplh4-1" value="&lt;b&gt;&lt;font style=&quot;font-size: 18px;&quot;&gt;CUSTOMER&lt;/font&gt;&lt;/b&gt;" style="text;html=1;strokeColor=#82b366;fillColor=#d5e8d4;align=center;verticalAlign=middle;whiteSpace=wrap;overflow=hidden;" parent="YUWVcZzt3nmgiwPd1lfK-24" vertex="1">
          <mxGeometry y="70" width="160" height="30" as="geometry" />
        </mxCell>
        <mxCell id="YUWVcZzt3nmgiwPd1lfK-26" value="Location of Customers (Country)" style="text;html=1;align=center;verticalAlign=middle;whiteSpace=wrap;rounded=0;" parent="1" vertex="1">
          <mxGeometry x="620" y="610" width="130" height="30" as="geometry" />
        </mxCell>
        <mxCell id="YUWVcZzt3nmgiwPd1lfK-27" value="erp_px_cat_g1v2" style="swimlane;fontStyle=0;childLayout=stackLayout;horizontal=1;startSize=30;horizontalStack=0;resizeParent=1;resizeParentMax=0;resizeLast=0;collapsible=1;marginBottom=0;whiteSpace=wrap;html=1;fillColor=#fff2cc;strokeColor=#d6b656;rounded=1;fontSize=17;" parent="1" vertex="1">
          <mxGeometry x="605" y="330" width="160" height="100" as="geometry" />
        </mxCell>
        <mxCell id="YUWVcZzt3nmgiwPd1lfK-28" value="id" style="text;strokeColor=none;fillColor=none;align=left;verticalAlign=middle;spacingLeft=4;spacingRight=4;overflow=hidden;points=[[0,0.5],[1,0.5]];portConstraint=eastwest;rotatable=0;whiteSpace=wrap;html=1;fontSize=17;" parent="YUWVcZzt3nmgiwPd1lfK-27" vertex="1">
          <mxGeometry y="30" width="160" height="40" as="geometry" />
        </mxCell>
        <mxCell id="Ue31bYoo42OICyJNplh4-4" value="&lt;b&gt;&lt;font style=&quot;font-size: 18px;&quot;&gt;PRODUCT&lt;/font&gt;&lt;/b&gt;" style="text;html=1;strokeColor=#b85450;fillColor=#f8cecc;align=center;verticalAlign=middle;whiteSpace=wrap;overflow=hidden;" parent="YUWVcZzt3nmgiwPd1lfK-27" vertex="1">
          <mxGeometry y="70" width="160" height="30" as="geometry" />
        </mxCell>
        <mxCell id="YUWVcZzt3nmgiwPd1lfK-29" value="Product Categories" style="text;html=1;align=center;verticalAlign=middle;whiteSpace=wrap;rounded=0;" parent="1" vertex="1">
          <mxGeometry x="620" y="290" width="130" height="30" as="geometry" />
        </mxCell>
        <mxCell id="YUWVcZzt3nmgiwPd1lfK-30" style="edgeStyle=orthogonalEdgeStyle;rounded=0;orthogonalLoop=1;jettySize=auto;html=1;entryX=1;entryY=0.5;entryDx=0;entryDy=0;" parent="1" source="YUWVcZzt3nmgiwPd1lfK-25" target="YUWVcZzt3nmgiwPd1lfK-23" edge="1">
          <mxGeometry relative="1" as="geometry" />
        </mxCell>
        <mxCell id="YUWVcZzt3nmgiwPd1lfK-32" style="edgeStyle=orthogonalEdgeStyle;rounded=0;orthogonalLoop=1;jettySize=auto;html=1;" parent="1" source="YUWVcZzt3nmgiwPd1lfK-21" target="YUWVcZzt3nmgiwPd1lfK-23" edge="1">
          <mxGeometry relative="1" as="geometry" />
        </mxCell>
        <mxCell id="YUWVcZzt3nmgiwPd1lfK-33" style="edgeStyle=orthogonalEdgeStyle;rounded=0;orthogonalLoop=1;jettySize=auto;html=1;entryX=1;entryY=0.5;entryDx=0;entryDy=0;" parent="1" source="YUWVcZzt3nmgiwPd1lfK-28" target="YUWVcZzt3nmgiwPd1lfK-8" edge="1">
          <mxGeometry relative="1" as="geometry" />
        </mxCell>
        <mxCell id="YUWVcZzt3nmgiwPd1lfK-35" value="&lt;b&gt;&lt;font style=&quot;font-size: 25px;&quot;&gt;CRM&lt;/font&gt;&lt;/b&gt;" style="rounded=1;whiteSpace=wrap;html=1;fillColor=#dae8fc;strokeColor=#6c8ebf;" parent="1" vertex="1">
          <mxGeometry x="167.5" y="220" width="185" height="50" as="geometry" />
        </mxCell>
        <mxCell id="YUWVcZzt3nmgiwPd1lfK-37" value="&lt;b&gt;&lt;font style=&quot;font-size: 25px;&quot;&gt;ERP&lt;/font&gt;&lt;/b&gt;" style="rounded=1;whiteSpace=wrap;html=1;fillColor=#fff2cc;strokeColor=#d6b656;" parent="1" vertex="1">
          <mxGeometry x="592.5" y="220" width="185" height="50" as="geometry" />
        </mxCell>
        <mxCell id="YUWVcZzt3nmgiwPd1lfK-40" value="&lt;b&gt;&lt;font style=&quot;font-size: 25px;&quot;&gt;Integration Model&amp;nbsp;&lt;/font&gt;&lt;/b&gt;&lt;span style=&quot;background-color: transparent; color: light-dark(rgb(0, 0, 0), rgb(255, 255, 255));&quot;&gt;&lt;font style=&quot;&quot;&gt;(how the tables are connected)&lt;/font&gt;&lt;/span&gt;" style="text;html=1;align=center;verticalAlign=middle;whiteSpace=wrap;rounded=0;" parent="1" vertex="1">
          <mxGeometry x="45" y="110" width="400" height="50" as="geometry" />
        </mxCell>
      </root>
    </mxGraphModel>
  </diagram>
</mxfile>
